<?xml version="1.0" encoding="utf-8"?>
<svg version="1.1" xmlns:xlink="http://www.w3.org/1999/xlink" width="10px" height="20px" xmlns="http://www.w3.org/2000/svg">
  <g transform="matrix(1 0 0 1 -228 -450 )">
    <path d="M 9.703125 3.06919642857143  C 9.90104166666667 3.21056547619047  10 3.37797619047619  10 3.57142857142857  C 10 3.76488095238095  9.90104166666667 3.93229166666667  9.703125 4.07366071428571  C 9.50520833333333 4.21502976190476  9.27083333333333 4.28571428571429  9 4.28571428571429  L 7 4.28571428571429  L 7 15.7142857142857  L 9 15.7142857142857  C 9.27083333333333 15.7142857142857  9.50520833333333 15.7849702380952  9.703125 15.9263392857143  C 9.90104166666667 16.0677083333333  10 16.235119047619  10 16.4285714285714  C 10 16.6220238095238  9.90104166666667 16.7894345238095  9.703125 16.9308035714286  L 5.703125 19.7879464285714  C 5.50520833333333 19.9293154761905  5.27083333333333 20  5 20  C 4.72916666666667 20  4.49479166666667 19.9293154761905  4.296875 19.7879464285714  L 0.296875 16.9308035714286  C 0.0989583333333335 16.7894345238095  0 16.6220238095238  0 16.4285714285714  C 0 16.235119047619  0.0989583333333335 16.0677083333333  0.296875 15.9263392857143  C 0.494791666666667 15.7849702380952  0.729166666666667 15.7142857142857  1 15.7142857142857  L 3 15.7142857142857  L 3 4.28571428571429  L 1 4.28571428571429  C 0.729166666666667 4.28571428571429  0.494791666666667 4.21502976190476  0.296875 4.07366071428571  C 0.0989583333333335 3.93229166666667  0 3.76488095238095  0 3.57142857142857  C 0 3.37797619047619  0.0989583333333335 3.21056547619047  0.296875 3.06919642857143  L 4.296875 0.212053571428572  C 4.49479166666667 0.0706845238095255  4.72916666666667 0  5 0  C 5.27083333333333 0  5.50520833333333 0.0706845238095255  5.703125 0.212053571428572  L 9.703125 3.06919642857143  Z " fill-rule="nonzero" fill="#bebbbb" stroke="none" transform="matrix(1 0 0 1 228 450 )" />
  </g>
</svg>