<?xml version="1.0" encoding="utf-8"?>
<svg version="1.1" xmlns:xlink="http://www.w3.org/1999/xlink" width="22px" height="13px" xmlns="http://www.w3.org/2000/svg">
  <g transform="matrix(1 0 0 1 -213 -1532 )">
    <path d="M 21.591796875 0.428819444444445  C 21.8639322916667 0.714699074074073  22 1.05324074074074  22 1.44444444444445  C 22 1.83564814814815  21.8639322916667 2.17418981481481  21.591796875 2.46006944444445  L 11.966796875 12.5711805555556  C 11.6946614583333 12.8570601851852  11.3723958333333 13  11 13  C 10.6276041666667 13  10.3053385416667 12.8570601851852  10.033203125 12.5711805555556  L 0.408203125 2.46006944444445  C 0.136067708333333 2.17418981481481  0 1.83564814814815  0 1.44444444444445  C 0 1.05324074074074  0.136067708333333 0.714699074074073  0.408203125 0.428819444444445  C 0.680338541666667 0.142939814814813  1.00260416666667 0  1.375 0  L 20.625 0  C 20.9973958333333 0  21.3196614583333 0.142939814814813  21.591796875 0.428819444444445  Z " fill-rule="nonzero" fill="#d4d2d2" stroke="none" transform="matrix(1 0 0 1 213 1532 )" />
  </g>
</svg>