<?xml version="1.0" encoding="utf-8"?>
<svg version="1.1" xmlns:xlink="http://www.w3.org/1999/xlink" width="22px" height="21px" xmlns="http://www.w3.org/2000/svg">
  <g transform="matrix(1 0 0 1 -399 -817 )">
    <path d="M 17.0442708333333 8.75  C 17.0442708333333 8.98697916666667  16.9535590277778 9.19205729166667  16.7721354166667 9.365234375  L 10.7278645833333 15.134765625  C 10.5464409722222 15.3079427083333  10.3315972222222 15.39453125  10.0833333333333 15.39453125  C 9.83506944444445 15.39453125  9.62022569444445 15.3079427083333  9.43880208333333 15.134765625  L 5.22786458333333 11.115234375  C 5.04644097222222 10.9420572916667  4.95572916666667 10.7369791666667  4.95572916666667 10.5  C 4.95572916666667 10.2630208333333  5.04644097222222 10.0579427083333  5.22786458333333 9.884765625  L 6.68880208333333 8.490234375  C 6.87022569444445 8.31705729166667  7.08506944444445 8.23046875  7.33333333333333 8.23046875  C 7.58159722222222 8.23046875  7.79644097222222 8.31705729166667  7.97786458333333 8.490234375  L 10.0833333333333 10.5  L 14.0221354166667 6.740234375  C 14.2035590277778 6.56705729166667  14.4184027777778 6.48046875  14.6666666666667 6.48046875  C 14.9149305555556 6.48046875  15.1297743055556 6.56705729166667  15.3111979166667 6.740234375  L 16.7721354166667 8.134765625  C 16.9535590277778 8.30794270833333  17.0442708333333 8.51302083333333  17.0442708333333 8.75  Z M 17.74609375 14.232421875  C 18.4431423611111 13.0930989583333  18.7916666666667 11.8489583333333  18.7916666666667 10.5  C 18.7916666666667 9.15104166666667  18.4431423611111 7.90690104166667  17.74609375 6.767578125  C 17.0490451388889 5.62825520833333  16.1037326388889 4.72591145833333  14.91015625 4.060546875  C 13.7165798611111 3.39518229166667  12.4131944444444 3.0625  11 3.0625  C 9.58680555555556 3.0625  8.28342013888889 3.39518229166667  7.08984375 4.060546875  C 5.89626736111111 4.72591145833333  4.95095486111111 5.62825520833333  4.25390625 6.767578125  C 3.55685763888889 7.90690104166667  3.20833333333333 9.15104166666667  3.20833333333333 10.5  C 3.20833333333333 11.8489583333333  3.55685763888889 13.0930989583333  4.25390625 14.232421875  C 4.95095486111111 15.3717447916667  5.89626736111111 16.2740885416667  7.08984375 16.939453125  C 8.28342013888889 17.6048177083333  9.58680555555556 17.9375  11 17.9375  C 12.4131944444444 17.9375  13.7165798611111 17.6048177083333  14.91015625 16.939453125  C 16.1037326388889 16.2740885416667  17.0490451388889 15.3717447916667  17.74609375 14.232421875  Z M 20.5247395833333 5.2294921875  C 21.5082465277778 6.83821614583333  22 8.59505208333333  22 10.5  C 22 12.4049479166667  21.5082465277778 14.1617838541667  20.5247395833333 15.7705078125  C 19.5412326388889 17.3792317708333  18.2068142361111 18.6529947916667  16.521484375 19.591796875  C 14.8361545138889 20.5305989583333  12.9956597222222 21  11 21  C 9.00434027777778 21  7.16384548611111 20.5305989583333  5.478515625 19.591796875  C 3.79318576388889 18.6529947916667  2.45876736111111 17.3792317708333  1.47526041666667 15.7705078125  C 0.491753472222222 14.1617838541667  0 12.4049479166667  0 10.5  C 0 8.59505208333333  0.491753472222222 6.83821614583333  1.47526041666667 5.2294921875  C 2.45876736111111 3.62076822916667  3.79318576388889 2.34700520833333  5.478515625 1.408203125  C 7.16384548611111 0.469401041666665  9.00434027777778 0  11 0  C 12.9956597222222 0  14.8361545138889 0.469401041666665  16.521484375 1.408203125  C 18.2068142361111 2.34700520833333  19.5412326388889 3.62076822916667  20.5247395833333 5.2294921875  Z " fill-rule="nonzero" fill="#57e823" stroke="none" transform="matrix(1 0 0 1 399 817 )" />
  </g>
</svg>