<svg t="1597981455036" class="icon" viewBox="0 0 1024 1024" version="1.1" xmlns="http://www.w3.org/2000/svg" p-id="2097" width="160" height="160"><path d="M819.3 849.7h-580c-19.3 0-35-15.7-35-35v-580c0-19.3 15.7-35 35-35h580c19.3 0 35 15.7 35 35v580c0 19.3-15.6 35-35 35z" fill="#ffffff" p-id="2098" data-spm-anchor-id="a313x.7781069.0.i10" class="selected"></path><path d="M819.3 857.2h-580c-23.4 0-42.5-19.1-42.5-42.5v-580c0-23.4 19.1-42.5 42.5-42.5h580c23.4 0 42.5 19.1 42.5 42.5v580c0 23.4-19 42.5-42.5 42.5z m-580-650c-15.2 0-27.5 12.3-27.5 27.5v580c0 15.2 12.3 27.5 27.5 27.5h580c15.2 0 27.5-12.3 27.5-27.5v-580c0-15.2-12.3-27.5-27.5-27.5h-580z" fill="#A4579D" p-id="2099" data-spm-anchor-id="a313x.7781069.0.i11" class=""></path><path d="M410.6 536.6h-47.5c-13.1 0-23.7 10.6-23.7 23.7v95c0 13.1 10.6 23.7 23.7 23.7h47.5c13.1 0 23.7-10.6 23.7-23.7v-95c0-13.1-10.6-23.7-23.7-23.7z m142.5-166.3h-47.5c-13.1 0-23.7 10.6-23.7 23.7v261.3c0 13.1 10.6 23.7 23.7 23.7h47.5c13.1 0 23.8-10.6 23.8-23.7V394.1c-0.1-13.1-10.7-23.8-23.8-23.8z m142.5 71.3h-47.5c-13.1 0-23.8 10.6-23.8 23.8v190c0 13.1 10.7 23.7 23.8 23.7h47.5c13.1 0 23.7-10.6 23.7-23.7v-190c0-13.2-10.6-23.8-23.7-23.8z m0 0" fill="#A4579D" p-id="2100" data-spm-anchor-id="a313x.7781069.0.i12" class=""></path></svg>