<?xml version="1.0" encoding="utf-8"?>
<svg version="1.1" xmlns:xlink="http://www.w3.org/1999/xlink" width="50px" height="19px" xmlns="http://www.w3.org/2000/svg">
  <g transform="matrix(1 0 0 1 -94 -1119 )">
    <path d="M 49.072265625 15.4045138888889  C 49.6907552083333 15.822337962963  50 16.3171296296296  50 16.8888888888889  C 50 17.4606481481481  49.6907552083333 17.9554398148148  49.072265625 18.3732638888889  C 48.4537760416667 18.791087962963  47.7213541666667 19  46.875 19  L 3.125 19  C 2.27864583333333 19  1.54622395833333 18.791087962963  0.927734375 18.3732638888889  C 0.309244791666667 17.9554398148148  0 17.4606481481481  0 16.8888888888889  C 0 16.3171296296296  0.309244791666667 15.822337962963  0.927734375 15.4045138888889  L 22.802734375 0.626736111111112  C 23.4212239583333 0.208912037037035  24.1536458333333 0  25 0  C 25.8463541666667 0  26.5787760416667 0.208912037037035  27.197265625 0.626736111111112  L 49.072265625 15.4045138888889  Z " fill-rule="nonzero" fill="#f2f2f2" stroke="none" transform="matrix(1 0 0 1 94 1119 )" />
  </g>
</svg>